<?xml version="1.0" encoding="UTF-8" standalone="no"?>
<!DOCTYPE svg PUBLIC "-//W3C//DTD SVG 1.1//EN" "http://www.w3.org/Graphics/SVG/1.1/DTD/svg11.dtd">
<svg width="100%" height="100%" viewBox="0 0 18 18" version="1.1" xmlns="http://www.w3.org/2000/svg" xmlns:xlink="http://www.w3.org/1999/xlink" xml:space="preserve" xmlns:serif="http://www.serif.com/" style="fill-rule:evenodd;clip-rule:evenodd;stroke-linejoin:round;stroke-miterlimit:2;">
    <g transform="matrix(0.7,0,0,0.7,0.600013,0.600004)">
        <path d="M7.291,20.824L2,22L3.176,16.709C2.402,15.26 1.998,13.643 2,12C2,6.477 6.477,2 12,2C17.523,2 22,6.477 22,12C22,17.523 17.523,22 12,22C10.357,22.002 8.74,21.598 7.291,20.824ZM7,12C7,14.743 9.257,17 12,17C14.743,17 17,14.743 17,12L15,12C15,13.646 13.646,15 12,15C10.354,15 9,13.646 9,12L7,12Z" style="fill:rgb(160,165,171);fill-rule:nonzero;"/>
    </g>
</svg>
